trial_4_ID.mot
nRows=13
nColumns=42

name trial_4_ID.mot
datacolumns 42
datarows 13
range 6.3000000000 6.4200000000
endheader
time	pelvis_tilt_moment	pelvis_list_moment	pelvis_rotation_moment	pelvis_tx_force	pelvis_ty_force	pelvis_tz_force	hip_flexion_r_moment	hip_adduction_r_moment	hip_rotation_r_moment	knee_angle_r_moment	knee_vv_r_moment	knee_rot_r_moment	ankle_angle_r_moment	subtalar_angle_r_moment	mtp_angle_r_moment	hip_flexion_l_moment	hip_adduction_l_moment	hip_rotation_l_moment	knee_angle_l_moment	knee_vv_l_moment	knee_rot_l_moment	ankle_angle_l_moment	subtalar_angle_l_moment	mtp_angle_l_moment	lumbar_extension_moment	lumbar_bending_moment	lumbar_rotation_moment	arm_flex_r_moment	arm_add_r_moment	arm_rot_r_moment	elbow_flex_r_moment	pro_sup_r_moment	wrist_flex_r_moment	wrist_dev_r_moment	arm_flex_l_moment	arm_add_l_moment	arm_rot_l_moment	elbow_flex_l_moment	pro_sup_l_moment	wrist_flex_l_moment	wrist_dev_l_moment
        6.3000000000	        7.7579436200	        9.7659762900	        5.6340527800	        5.1447391900	       10.6486701100	        2.7919231400	        4.9531556400	       -1.9159513200	        0.4230108700	        0.9346425400	       -0.5590292400	       -0.0065366000	        0.5192910000	       -0.0968082900	        0.0192668700	       -4.4576654800	      -53.4403237900	        2.1289155900	        6.0746343100	       25.7235644700	        2.3876992400	      -17.0874457500	        7.6606953600	        0.0284214900	       21.1324966400	        0.7535174100	        6.1834524900	        0.3300126200	       -2.2585350300	       -0.0826768500	       -0.3973343200	       -0.0139742900	       -0.0541972800	        0.0119336000	       -1.0215532900	       -1.0835003400	       -0.0142393100	        0.0200269400	       -0.0010988200	        0.0265290300	        0.0007826200	
        6.3100000000	        6.4049414900	        8.2894700200	        5.8004684200	        6.9718104500	        6.3163379000	        5.0007494000	        4.7349492400	       -2.6812337500	        0.9197162400	        0.5400052100	       -1.0988463400	       -0.0438040500	        0.5470119700	       -0.1362964100	        0.0200637200	       -3.9105918100	      -52.7535097000	        1.5815338600	        4.5688127800	       25.1248696600	        2.5869930500	      -18.2366745900	        7.8546743800	        0.0280067000	       19.0108270100	        0.2499015000	        6.0444322700	        0.4947077300	       -2.2419357100	       -0.0841617200	       -0.3729852100	       -0.0158721500	       -0.0590983200	        0.0091970600	       -1.0313610800	       -1.0911984300	       -0.0124608900	        0.0286424900	       -0.0011894500	        0.0266253800	       -0.0002685700	
        6.3200000000	        4.7600950000	        6.4202585800	        5.8874036200	        9.6172009800	        1.9934396900	        6.1915250600	        4.5760337600	       -3.3473237400	        1.3788805100	        0.1338188500	       -1.6005593500	       -0.0757040000	        0.5931770300	       -0.1758279100	        0.0217962800	       -3.4347211000	      -52.0882853700	        1.0788281800	        3.0851916000	       24.5737091900	        2.7661058100	      -19.3615602700	        8.0523357100	        0.0277390700	       16.6842718300	       -0.4621810200	        5.7587991100	        0.6482530600	       -2.2141707300	       -0.0846310900	       -0.3436456000	       -0.0176119900	       -0.0632505700	        0.0058336100	       -1.0163068100	       -1.0953683200	       -0.0083908900	        0.0335513200	       -0.0007885300	        0.0264828600	       -0.0003552700	
        6.3300000000	        2.8433410500	        4.3665163500	        5.9133421800	       12.6708897800	       -1.6289121900	        6.5161182300	        4.4293005200	       -3.9016025800	        1.7894508400	       -0.2906199800	       -2.0518654000	       -0.1001765400	        0.6530629500	       -0.2135282300	        0.0243194900	       -3.0127992600	      -51.4611981800	        0.6249802400	        1.6380734400	       24.0777891500	        2.9260600300	      -20.4592037700	        8.2478761100	        0.0276374200	       14.2970767800	       -1.2610094900	        5.4053709800	        0.7857651700	       -2.1770883200	       -0.0834679900	       -0.3110571400	       -0.0190243400	       -0.0664831300	        0.0020725400	       -0.9835172300	       -1.1004864600	       -0.0017572100	        0.0322900700	        0.0001756300	        0.0261824400	        0.0009516000	
        6.3400000000	        0.7132252500	        2.3667057600	        5.8935714300	       15.6376227100	       -4.0715746600	        6.2358096600	        4.2568346600	       -4.3302851600	        2.1357457500	       -0.7317847200	       -2.4343325500	       -0.1149393300	        0.7226011400	       -0.2472430600	        0.0275091900	       -2.6345881100	      -50.8901397000	        0.2173242300	        0.2276649400	       23.6416196000	        3.0704783900	      -21.5367866700	        8.4365131500	        0.0276924600	       11.9970338800	       -2.0092064200	        5.0609195700	        0.9045656000	       -2.1354600700	       -0.0804296500	       -0.2774682300	       -0.0200129700	       -0.0687950400	       -0.0018271100	       -0.9416446600	       -1.1082839500	        0.0076666800	        0.0238688600	        0.0017042700	        0.0258961300	        0.0038441600	
        6.3500000000	       -1.5321625500	        0.6286673500	        5.8390307600	       18.0255809900	       -5.0955017400	        5.6580749400	        4.0386440500	       -4.6221838300	        2.3995673300	       -1.1798930100	       -2.7253913100	       -0.1178858900	        0.7985791700	       -0.2747820300	        0.0312633300	       -2.2946133300	      -50.3854790900	       -0.1515809300	       -1.1552339100	       23.2640803100	        3.2039960500	      -22.6097011700	        8.6154290700	        0.0278736100	        9.9200335000	       -2.5865713900	        4.7863757700	        1.0034502000	       -2.0963374400	       -0.0756434000	       -0.2455872600	       -0.0205549700	       -0.0703439400	       -0.0055824200	       -0.8990996900	       -1.1172866100	        0.0200371400	        0.0090543800	        0.0037193300	        0.0258564300	        0.0082361500	
        6.3600000000	       -3.7592931200	       -0.6984962100	        5.7542129700	       19.4404764300	       -4.6898517200	        5.0620186200	        3.7781468300	       -4.7677415000	        2.5622138200	       -1.6183923600	       -2.8998846000	       -0.1074303400	        0.8785616400	       -0.2941126500	        0.0354940000	       -1.9880825500	      -49.9498872600	       -0.4913120800	       -2.5231675000	       22.9394715600	        3.3310839000	      -23.6988484100	        8.7842334700	        0.0281370800	        8.1761041600	       -2.9095922600	        4.6189282900	        1.0820771300	       -2.0673827500	       -0.0695188600	       -0.2181912200	       -0.0206881200	       -0.0713887000	       -0.0089186400	       -0.8624268000	       -1.1240577000	        0.0352680100	       -0.0099598500	        0.0060643800	        0.0262723300	        0.0137920100	
        6.3700000000	       -5.8157860700	       -1.5201688900	        5.6353771100	       19.6547643100	       -3.0345667200	        4.6297014200	        3.4993154500	       -4.7536716400	        2.6064741200	       -2.0279344800	       -2.9312956300	       -0.0827704300	        0.9604593700	       -0.3034808900	        0.0401098400	       -1.7084048000	      -49.5848198300	       -0.8113879900	       -3.8869526400	       22.6609261000	        3.4556395400	      -24.8277519900	        8.9449833800	        0.0284339600	        6.8386691400	       -2.9369437900	        4.5707120100	        1.1407347900	       -2.0549097800	       -0.0626120500	       -0.1975639700	       -0.0204909200	       -0.0722124100	       -0.0116151400	       -0.8352873200	       -1.1252376700	        0.0528005400	       -0.0302748600	        0.0085197300	        0.0272356900	        0.0200098700	
        6.3800000000	       -7.5584061300	       -1.7751968200	        5.4703971900	       18.6292396000	       -0.4511437600	        4.4060160900	        3.2337943800	       -4.5577135800	        2.5195572800	       -2.3927483500	       -2.7941815700	       -0.0441657900	        1.0418490600	       -0.3015446700	        0.0449913200	       -1.4468089200	      -49.2985259200	       -1.1194912900	       -5.2523655400	       22.4242392500	        3.5806975100	      -26.0199639900	        9.1020085600	        0.0287171300	        5.9391384500	       -2.6648854300	        4.6328513700	        1.1804448900	       -2.0623803100	       -0.0554840800	       -0.1849969700	       -0.0200609800	       -0.0730538400	       -0.0135471200	       -0.8184281100	       -1.1192189500	        0.0714811800	       -0.0491063500	        0.0108339300	        0.0286684800	        0.0263328300	
        6.3900000000	       -8.8869243200	       -1.4202538400	        5.2413379700	       16.4817279800	        2.6489795800	        4.3045562600	        3.0001825300	       -4.1501341000	        2.2976667200	       -2.7082355800	       -2.4696956700	        0.0066396500	        1.1192753600	       -0.2876480400	        0.0499648200	       -1.1939063200	      -49.1095636200	       -1.4205091300	       -6.6192127900	       22.2298477100	        3.7082852500	      -27.2973501400	        9.2614117500	        0.0289465800	        5.4679911600	       -2.1183485200	        4.7823984000	        1.2031455700	       -2.0897811000	       -0.0485905400	       -0.1805320800	       -0.0194962600	       -0.0740650800	       -0.0147077700	       -0.8105937200	       -1.1066938100	        0.0896760400	       -0.0644437700	        0.0127678100	        0.0303380000	        0.0322592300	
        6.4000000000	       -9.8836135900	       -0.4177747800	        4.9057900200	       13.2706144900	        5.7423349800	        4.1442990100	        2.6812448100	       -3.4988308900	        1.9512577000	       -3.0232964700	       -1.9547577200	        0.0655947800	        1.1855439600	       -0.2620636700	        0.0547408900	       -0.9419005000	      -49.0422172000	       -1.7167960300	       -7.9824977100	       22.0814000300	        3.8397968300	      -28.6792217600	        9.4301581800	        0.0290928700	        5.3813250200	       -1.3422060600	        4.9895798500	        1.2117232200	       -2.1339073300	       -0.0422224000	       -0.1830079200	       -0.0188820400	       -0.0752995900	       -0.0152048900	       -0.8098309700	       -1.0900437600	        0.1056153800	       -0.0753776600	        0.0141389000	        0.0319309200	        0.0374244600	
        6.4100000000	      -10.7510828000	        1.2161137300	        4.4222402000	        9.0454486500	        8.2947075200	        3.7589791900	        2.0816438500	       -2.6038587200	        1.5099704900	       -3.4233827700	       -1.2748960000	        0.1258367900	        1.2319944200	       -0.2269360100	        0.0589641000	       -0.6847443300	      -49.1160285100	       -2.0086165900	       -9.3340360400	       21.9819118800	        3.9761487600	      -30.1819395700	        9.6151190700	        0.0291385100	        5.6104938800	       -0.3944972300	        5.2236444200	        1.2097993100	       -2.1892823500	       -0.0365021500	       -0.1903589600	       -0.0182846600	       -0.0767245000	       -0.0152345100	       -0.8144934100	       -1.0721723500	        0.1178204200	       -0.0820620500	        0.0148521000	        0.0331479800	        0.0416369300	
        6.4200000000	      -11.4401785300	        3.3174512900	        3.8289973500	        4.3033881000	       10.0325953200	        3.1403846600	        1.2680873500	       -1.5526317800	        1.0222180500	       -3.8990224400	       -0.4934369300	        0.1783478000	        1.2561492200	       -0.1873762100	        0.0623410800	       -0.4163319000	      -49.3353973500	       -2.2940746000	      -10.6637924500	       21.9299906400	        4.1173427200	      -31.8189228500	        9.8222992400	        0.0290774400	        6.0728833400	        0.6586128900	        5.4568268900	        1.2012867400	       -2.2493308600	       -0.0314232000	       -0.2000586100	       -0.0177508800	       -0.0782460800	       -0.0150399100	       -0.8236039900	       -1.0555701100	        0.1254186100	       -0.0854206000	        0.0149075900	        0.0337781200	        0.0448683700	
